<svg width="66" height="38" viewBox="0 0 66 38" fill="none" xmlns="http://www.w3.org/2000/svg">
<path d="M0 19C0 8.50658 8.88099 0 19.8363 0H45.8713C56.8267 0 65.7076 8.50658 65.7076 19V38H19.8363C8.88099 38 0 29.4935 0 19Z" fill="#4845D2"/>
<path d="M46.4328 7H20.3977C13.5506 7 8 12.3166 8 18.875C8 25.4334 13.5506 30.75 20.3977 30.75H46.4328C53.2798 30.75 58.8304 25.4334 58.8304 18.875C58.8304 12.3166 53.2798 7 46.4328 7Z" fill="#A5B4FC"/>
<path d="M21.1988 24.875C24.6223 24.875 27.3977 22.2167 27.3977 18.9375C27.3977 15.6583 24.6223 13 21.1988 13C17.7753 13 15 15.6583 15 18.9375C15 22.2167 17.7753 24.875 21.1988 24.875Z" fill="black"/>
<path d="M47.1988 24.875C50.6223 24.875 53.3977 22.2167 53.3977 18.9375C53.3977 15.6583 50.6223 13 47.1988 13C43.7753 13 41 15.6583 41 18.9375C41 22.2167 43.7753 24.875 47.1988 24.875Z" fill="black"/>
<path d="M18.2398 18.375C18.9245 18.375 19.4795 17.8433 19.4795 17.1875C19.4795 16.5317 18.9245 16 18.2398 16C17.5551 16 17 16.5317 17 17.1875C17 17.8433 17.5551 18.375 18.2398 18.375Z" fill="white"/>
<path d="M44.2398 18.375C44.9245 18.375 45.4795 17.8433 45.4795 17.1875C45.4795 16.5317 44.9245 16 44.2398 16C43.5551 16 43 16.5317 43 17.1875C43 17.8433 43.5551 18.375 44.2398 18.375Z" fill="white"/>
</svg>
