<svg width="212" height="38" viewBox="0 0 212 38" fill="none" xmlns="http://www.w3.org/2000/svg">
<g clip-path="url(#clip0_2006_10)">
<path d="M0 19C0 8.50658 8.88099 0 19.8363 0H45.8713C56.8267 0 65.7076 8.50658 65.7076 19V38H19.8363C8.88099 38 0 29.4935 0 19Z" fill="#4845D2"/>
<path d="M45.8713 7.125H19.8363C12.9892 7.125 7.4386 12.4416 7.4386 19C7.4386 25.5584 12.9892 30.875 19.8363 30.875H45.8713C52.7184 30.875 58.269 25.5584 58.269 19C58.269 12.4416 52.7184 7.125 45.8713 7.125Z" fill="#A5B4FC"/>
<path d="M19.8363 24.9375C23.2598 24.9375 26.0351 22.2792 26.0351 19C26.0351 15.7208 23.2598 13.0625 19.8363 13.0625C16.4127 13.0625 13.6374 15.7208 13.6374 19C13.6374 22.2792 16.4127 24.9375 19.8363 24.9375Z" fill="black"/>
<path d="M17.3567 17.8125C18.0414 17.8125 18.5965 17.2808 18.5965 16.625C18.5965 15.9692 18.0414 15.4375 17.3567 15.4375C16.672 15.4375 16.1169 15.9692 16.1169 16.625C16.1169 17.2808 16.672 17.8125 17.3567 17.8125Z" fill="white"/>
<path d="M47.1111 24.9375C50.5346 24.9375 53.31 22.2792 53.31 19C53.31 15.7208 50.5346 13.0625 47.1111 13.0625C43.6876 13.0625 40.9123 15.7208 40.9123 19C40.9123 22.2792 43.6876 24.9375 47.1111 24.9375Z" fill="black"/>
<path d="M44.6316 17.8125C45.3163 17.8125 45.8713 17.2808 45.8713 16.625C45.8713 15.9692 45.3163 15.4375 44.6316 15.4375C43.9469 15.4375 43.3918 15.9692 43.3918 16.625C43.3918 17.2808 43.9469 17.8125 44.6316 17.8125Z" fill="white"/>
<path d="M68.9318 29V11.5455H73.5455V14.625H73.75C74.1136 13.6023 74.7197 12.7955 75.5682 12.2045C76.4167 11.6136 77.4318 11.3182 78.6136 11.3182C79.8106 11.3182 80.8295 11.6174 81.6705 12.2159C82.5114 12.8068 83.072 13.6098 83.3523 14.625H83.5341C83.8902 13.625 84.5341 12.8258 85.4659 12.2273C86.4053 11.6212 87.5152 11.3182 88.7955 11.3182C90.4242 11.3182 91.7462 11.8371 92.7614 12.875C93.7841 13.9053 94.2955 15.3674 94.2955 17.2614V29H89.4659V18.2159C89.4659 17.2462 89.2083 16.5189 88.6932 16.0341C88.178 15.5492 87.5341 15.3068 86.7614 15.3068C85.8826 15.3068 85.197 15.5871 84.7045 16.1477C84.2121 16.7008 83.9659 17.4318 83.9659 18.3409V29H79.2727V18.1136C79.2727 17.2576 79.0265 16.5758 78.5341 16.0682C78.0492 15.5606 77.4091 15.3068 76.6136 15.3068C76.0758 15.3068 75.5909 15.4432 75.1591 15.7159C74.7348 15.9811 74.3977 16.3561 74.1477 16.8409C73.8977 17.3182 73.7727 17.8788 73.7727 18.5227V29H68.9318Z" fill="#00CC8E"/>
<path d="M106.074 29.3409C104.278 29.3409 102.733 28.9773 101.438 28.25C100.15 27.5152 99.1572 26.4773 98.4602 25.1364C97.7633 23.7879 97.4148 22.1932 97.4148 20.3523C97.4148 18.5568 97.7633 16.9811 98.4602 15.625C99.1572 14.2689 100.138 13.2121 101.403 12.4545C102.676 11.697 104.169 11.3182 105.881 11.3182C107.032 11.3182 108.104 11.5038 109.097 11.875C110.097 12.2386 110.968 12.7879 111.71 13.5227C112.46 14.2576 113.044 15.1818 113.46 16.2955C113.877 17.4015 114.085 18.697 114.085 20.1818V21.5114H99.3466V18.5114H109.528C109.528 17.8144 109.377 17.197 109.074 16.6591C108.771 16.1212 108.35 15.7008 107.812 15.3977C107.282 15.0871 106.665 14.9318 105.96 14.9318C105.225 14.9318 104.574 15.1023 104.006 15.4432C103.445 15.7765 103.006 16.2273 102.688 16.7955C102.369 17.3561 102.206 17.9811 102.199 18.6705V21.5227C102.199 22.3864 102.358 23.1326 102.676 23.7614C103.002 24.3902 103.46 24.875 104.051 25.2159C104.642 25.5568 105.343 25.7273 106.153 25.7273C106.691 25.7273 107.184 25.6515 107.631 25.5C108.078 25.3485 108.46 25.1212 108.778 24.8182C109.097 24.5152 109.339 24.1439 109.506 23.7045L113.983 24C113.756 25.0758 113.29 26.0152 112.585 26.8182C111.888 27.6136 110.987 28.2348 109.881 28.6818C108.782 29.1212 107.513 29.3409 106.074 29.3409ZM123.676 29.2841C122.35 29.2841 121.15 28.9432 120.074 28.2614C119.006 27.572 118.157 26.5606 117.528 25.2273C116.907 23.8864 116.597 22.2424 116.597 20.2955C116.597 18.2955 116.919 16.6326 117.562 15.3068C118.206 13.9735 119.063 12.9773 120.131 12.3182C121.206 11.6515 122.384 11.3182 123.665 11.3182C124.642 11.3182 125.456 11.4848 126.108 11.8182C126.767 12.1439 127.297 12.553 127.699 13.0455C128.108 13.5303 128.419 14.0076 128.631 14.4773H128.778V5.72727H133.608V29H128.835V26.2045H128.631C128.403 26.6894 128.081 27.1705 127.665 27.6477C127.256 28.1174 126.722 28.5076 126.062 28.8182C125.411 29.1288 124.616 29.2841 123.676 29.2841ZM125.21 25.4318C125.991 25.4318 126.65 25.2197 127.188 24.7955C127.733 24.3636 128.15 23.7614 128.438 22.9886C128.733 22.2159 128.881 21.3106 128.881 20.2727C128.881 19.2348 128.737 18.3333 128.449 17.5682C128.161 16.803 127.744 16.2121 127.199 15.7955C126.653 15.3788 125.991 15.1705 125.21 15.1705C124.415 15.1705 123.744 15.3864 123.199 15.8182C122.653 16.25 122.241 16.8485 121.96 17.6136C121.68 18.3788 121.54 19.2652 121.54 20.2727C121.54 21.2879 121.68 22.1856 121.96 22.9659C122.248 23.7386 122.661 24.3447 123.199 24.7841C123.744 25.2159 124.415 25.4318 125.21 25.4318ZM137.588 29V11.5455H142.429V29H137.588ZM140.02 9.29545C139.3 9.29545 138.683 9.05682 138.168 8.57954C137.66 8.0947 137.406 7.51515 137.406 6.84091C137.406 6.17424 137.66 5.60227 138.168 5.125C138.683 4.64015 139.3 4.39773 140.02 4.39773C140.74 4.39773 141.353 4.64015 141.861 5.125C142.376 5.60227 142.634 6.17424 142.634 6.84091C142.634 7.51515 142.376 8.0947 141.861 8.57954C141.353 9.05682 140.74 9.29545 140.02 9.29545ZM175.347 29.3295C174.233 29.3295 173.241 29.1364 172.369 28.75C171.498 28.3561 170.809 27.7765 170.301 27.0114C169.801 26.2386 169.551 25.2765 169.551 24.125C169.551 23.1553 169.729 22.3409 170.085 21.6818C170.441 21.0227 170.926 20.4924 171.54 20.0909C172.153 19.6894 172.85 19.3864 173.631 19.1818C174.419 18.9773 175.244 18.8333 176.108 18.75C177.123 18.6439 177.941 18.5455 178.562 18.4545C179.184 18.3561 179.634 18.2121 179.915 18.0227C180.195 17.8333 180.335 17.553 180.335 17.1818V17.1136C180.335 16.3939 180.108 15.8371 179.653 15.4432C179.206 15.0492 178.57 14.8523 177.744 14.8523C176.873 14.8523 176.18 15.0455 175.665 15.4318C175.15 15.8106 174.809 16.2879 174.642 16.8636L170.165 16.5C170.392 15.4394 170.839 14.5227 171.506 13.75C172.172 12.9697 173.032 12.3712 174.085 11.9545C175.146 11.5303 176.373 11.3182 177.767 11.3182C178.737 11.3182 179.665 11.4318 180.551 11.6591C181.445 11.8864 182.237 12.2386 182.926 12.7159C183.623 13.1932 184.172 13.8068 184.574 14.5568C184.975 15.2992 185.176 16.1894 185.176 17.2273V29H180.585V26.5795H180.449C180.169 27.125 179.794 27.6061 179.324 28.0227C178.854 28.4318 178.29 28.7538 177.631 28.9886C176.972 29.2159 176.21 29.3295 175.347 29.3295ZM176.733 25.9886C177.445 25.9886 178.074 25.8485 178.619 25.5682C179.165 25.2803 179.593 24.8939 179.903 24.4091C180.214 23.9242 180.369 23.375 180.369 22.7614V20.9091C180.218 21.0076 180.009 21.0985 179.744 21.1818C179.487 21.2576 179.195 21.3295 178.869 21.3977C178.544 21.4583 178.218 21.5152 177.892 21.5682C177.566 21.6136 177.271 21.6553 177.006 21.6932C176.438 21.7765 175.941 21.9091 175.517 22.0909C175.093 22.2727 174.763 22.5189 174.528 22.8295C174.294 23.1326 174.176 23.5114 174.176 23.9659C174.176 24.625 174.415 25.1288 174.892 25.4773C175.377 25.8182 175.991 25.9886 176.733 25.9886ZM193.773 5.72727V29H188.932V5.72727H193.773ZM202.491 5.72727V29H197.651V5.72727H202.491Z" fill="black"/>
<path d="M166.932 13.875H161.955C161.864 13.2311 161.678 12.6591 161.398 12.1591C161.117 11.6515 160.758 11.2197 160.318 10.8636C159.879 10.5076 159.371 10.2348 158.795 10.0455C158.227 9.85606 157.61 9.76136 156.943 9.76136C155.739 9.76136 154.689 10.0606 153.795 10.6591C152.902 11.25 152.208 12.1136 151.716 13.25C151.223 14.3788 150.977 15.75 150.977 17.3636C150.977 19.0227 151.223 20.4167 151.716 21.5455C152.216 22.6742 152.913 23.5265 153.807 24.1023C154.701 24.678 155.735 24.9659 156.909 24.9659C157.568 24.9659 158.178 24.8788 158.739 24.7045C159.307 24.5303 159.811 24.2765 160.25 23.9432C160.689 23.6023 161.053 23.1894 161.341 22.7045C161.636 22.2197 161.841 21.6667 161.955 21.0455L166.932 21.0682C166.803 22.1364 166.481 23.1667 165.966 24.1591C165.458 25.1439 164.773 26.0265 163.909 26.8068C163.053 27.5795 162.03 28.1932 160.841 28.6477C159.659 29.0947 158.322 29.3182 156.83 29.3182C154.754 29.3182 152.898 28.8485 151.261 27.9091C149.633 26.9697 148.345 25.6098 147.398 23.8295C146.458 22.0492 145.989 19.8939 145.989 17.3636C145.989 14.8258 146.466 12.6667 147.42 10.8864C148.375 9.10606 149.67 7.75 151.307 6.81818C152.943 5.87879 154.784 5.40909 156.83 5.40909C158.178 5.40909 159.428 5.59848 160.58 5.97727C161.739 6.35606 162.765 6.90909 163.659 7.63636C164.553 8.35606 165.28 9.23864 165.841 10.2841C166.409 11.3295 166.773 12.5265 166.932 13.875Z" fill="#0B17FD"/>
</g>
<defs>
<clipPath id="clip0_2006_10">
<rect width="212" height="38" fill="white"/>
</clipPath>
</defs>
</svg>
