<svg width="193" height="32" viewBox="0 0 193 32" fill="none" xmlns="http://www.w3.org/2000/svg">
<g clip-path="url(#clip0_2006_10)">
<path d="M0 16C0 7.16344 8.08505 0 18.0585 0H41.7602C51.7337 0 59.8187 7.16344 59.8187 16V32H18.0585C8.08505 32 0 24.8366 0 16Z" fill="#4845D2"/>
<path d="M41.7602 6H18.0585C11.8251 6 6.77194 10.4772 6.77194 16C6.77194 21.5228 11.8251 26 18.0585 26H41.7602C47.9936 26 53.0468 21.5228 53.0468 16C53.0468 10.4772 47.9936 6 41.7602 6Z" fill="#A5B4FC"/>
<path d="M18.0585 21C21.1752 21 23.7017 18.7614 23.7017 16C23.7017 13.2386 21.1752 11 18.0585 11C14.9418 11 12.4152 13.2386 12.4152 16C12.4152 18.7614 14.9418 21 18.0585 21Z" fill="black"/>
<path d="M15.8012 15C16.4245 15 16.9298 14.5523 16.9298 14C16.9298 13.4477 16.4245 13 15.8012 13C15.1778 13 14.6725 13.4477 14.6725 14C14.6725 14.5523 15.1778 15 15.8012 15Z" fill="white"/>
<path d="M42.8889 21C46.0056 21 48.5322 18.7614 48.5322 16C48.5322 13.2386 46.0056 11 42.8889 11C39.7722 11 37.2456 13.2386 37.2456 16C37.2456 18.7614 39.7722 21 42.8889 21Z" fill="black"/>
<path d="M40.6316 15C41.2549 15 41.7602 14.5523 41.7602 14C41.7602 13.4477 41.2549 13 40.6316 13C40.0082 13 39.5029 13.4477 39.5029 14C39.5029 14.5523 40.0082 15 40.6316 15Z" fill="white"/>
<path d="M66.7879 28V10.5455H69.3788V13.2727H69.6061C69.9697 12.3409 70.5568 11.6174 71.3674 11.1023C72.178 10.5795 73.1515 10.3182 74.2879 10.3182C75.4394 10.3182 76.3977 10.5795 77.1629 11.1023C77.9356 11.6174 78.5379 12.3409 78.9697 13.2727H79.1515C79.5985 12.3712 80.269 11.6553 81.1629 11.125C82.0568 10.5871 83.1288 10.3182 84.3788 10.3182C85.9394 10.3182 87.2159 10.8068 88.2083 11.7841C89.2008 12.7538 89.697 14.2652 89.697 16.3182V28H87.0152V16.3182C87.0152 15.0303 86.6629 14.1098 85.9583 13.5568C85.2538 13.0038 84.4243 12.7273 83.4697 12.7273C82.2424 12.7273 81.2917 13.0985 80.6174 13.8409C79.9432 14.5758 79.6061 15.5076 79.6061 16.6364V28H76.8788V16.0455C76.8788 15.053 76.5568 14.2538 75.9129 13.6477C75.269 13.0341 74.4394 12.7273 73.4243 12.7273C72.7273 12.7273 72.0758 12.9129 71.4697 13.2841C70.8712 13.6553 70.3864 14.1705 70.0152 14.8295C69.6515 15.4811 69.4697 16.2348 69.4697 17.0909V28H66.7879ZM101.919 28.3636C100.237 28.3636 98.786 27.9924 97.5663 27.25C96.3542 26.5 95.4186 25.4545 94.7595 24.1136C94.108 22.7652 93.7822 21.197 93.7822 19.4091C93.7822 17.6212 94.108 16.0455 94.7595 14.6818C95.4186 13.3106 96.3352 12.2424 97.5095 11.4773C98.6913 10.7045 100.07 10.3182 101.646 10.3182C102.555 10.3182 103.453 10.4697 104.339 10.7727C105.225 11.0758 106.032 11.5682 106.759 12.25C107.487 12.9242 108.066 13.8182 108.498 14.9318C108.93 16.0455 109.146 17.4167 109.146 19.0455V20.1818H95.6913V17.8636H106.419C106.419 16.8788 106.222 16 105.828 15.2273C105.441 14.4545 104.888 13.8447 104.169 13.3977C103.456 12.9508 102.616 12.7273 101.646 12.7273C100.578 12.7273 99.6534 12.9924 98.8731 13.5227C98.1004 14.0455 97.5057 14.7273 97.089 15.5682C96.6724 16.4091 96.464 17.3106 96.464 18.2727V19.8182C96.464 21.1364 96.6913 22.2538 97.1458 23.1705C97.608 24.0795 98.2481 24.7727 99.0663 25.25C99.8845 25.7197 100.835 25.9545 101.919 25.9545C102.623 25.9545 103.259 25.8561 103.828 25.6591C104.403 25.4545 104.9 25.1515 105.316 24.75C105.733 24.3409 106.055 23.8333 106.282 23.2273L108.873 23.9545C108.6 24.8333 108.142 25.6061 107.498 26.2727C106.854 26.9318 106.059 27.447 105.112 27.8182C104.165 28.1818 103.1 28.3636 101.919 28.3636ZM119.816 28.3636C118.362 28.3636 117.078 27.9962 115.964 27.2614C114.85 26.5189 113.979 25.4735 113.35 24.125C112.722 22.7689 112.407 21.1667 112.407 19.3182C112.407 17.4848 112.722 15.8939 113.35 14.5455C113.979 13.197 114.854 12.1553 115.975 11.4205C117.097 10.6856 118.392 10.3182 119.862 10.3182C120.998 10.3182 121.896 10.5076 122.555 10.8864C123.222 11.2576 123.729 11.6818 124.078 12.1591C124.434 12.6288 124.71 13.0152 124.907 13.3182H125.134V4.72727H127.816V28H125.225V25.3182H124.907C124.71 25.6364 124.43 26.0379 124.066 26.5227C123.703 27 123.184 27.428 122.509 27.8068C121.835 28.178 120.938 28.3636 119.816 28.3636ZM120.18 25.9545C121.256 25.9545 122.165 25.6742 122.907 25.1136C123.65 24.5455 124.214 23.7614 124.6 22.7614C124.987 21.7538 125.18 20.5909 125.18 19.2727C125.18 17.9697 124.991 16.8295 124.612 15.8523C124.233 14.8674 123.672 14.1023 122.93 13.5568C122.188 13.0038 121.271 12.7273 120.18 12.7273C119.044 12.7273 118.097 13.0189 117.339 13.6023C116.589 14.178 116.025 14.9621 115.646 15.9545C115.275 16.9394 115.089 18.0455 115.089 19.2727C115.089 20.5152 115.278 21.6439 115.657 22.6591C116.044 23.6667 116.612 24.4697 117.362 25.0682C118.119 25.6591 119.059 25.9545 120.18 25.9545ZM133.1 28V10.5455H135.782V28H133.1ZM134.464 7.63636C133.941 7.63636 133.491 7.45833 133.112 7.10227C132.741 6.74621 132.555 6.31818 132.555 5.81818C132.555 5.31818 132.741 4.89015 133.112 4.53409C133.491 4.17803 133.941 4 134.464 4C134.987 4 135.434 4.17803 135.805 4.53409C136.184 4.89015 136.373 5.31818 136.373 5.81818C136.373 6.31818 136.184 6.74621 135.805 7.10227C135.434 7.45833 134.987 7.63636 134.464 7.63636ZM159.785 12H156.967C156.8 11.1894 156.509 10.4773 156.092 9.86364C155.683 9.25 155.183 8.73485 154.592 8.31818C154.009 7.89394 153.361 7.57576 152.649 7.36364C151.937 7.15151 151.194 7.04545 150.421 7.04545C149.012 7.04545 147.736 7.40151 146.592 8.11364C145.456 8.82576 144.55 9.875 143.876 11.2614C143.209 12.6477 142.876 14.3485 142.876 16.3636C142.876 18.3788 143.209 20.0795 143.876 21.4659C144.55 22.8523 145.456 23.9015 146.592 24.6136C147.736 25.3258 149.012 25.6818 150.421 25.6818C151.194 25.6818 151.937 25.5758 152.649 25.3636C153.361 25.1515 154.009 24.8371 154.592 24.4205C155.183 23.9962 155.683 23.4773 156.092 22.8636C156.509 22.2424 156.8 21.5303 156.967 20.7273H159.785C159.573 21.9167 159.187 22.9811 158.626 23.9205C158.065 24.8598 157.368 25.6591 156.535 26.3182C155.702 26.9697 154.766 27.4659 153.728 27.8068C152.698 28.1477 151.596 28.3182 150.421 28.3182C148.437 28.3182 146.671 27.8333 145.126 26.8636C143.581 25.8939 142.365 24.5152 141.478 22.7273C140.592 20.9394 140.149 18.8182 140.149 16.3636C140.149 13.9091 140.592 11.7879 141.478 10C142.365 8.21212 143.581 6.83333 145.126 5.86364C146.671 4.89394 148.437 4.40909 150.421 4.40909C151.596 4.40909 152.698 4.57954 153.728 4.92045C154.766 5.26136 155.702 5.76136 156.535 6.42045C157.368 7.07197 158.065 7.86742 158.626 8.80682C159.187 9.73864 159.573 10.803 159.785 12ZM169.112 28.4091C168.006 28.4091 167.002 28.2008 166.1 27.7841C165.199 27.3598 164.483 26.75 163.953 25.9545C163.422 25.1515 163.157 24.1818 163.157 23.0455C163.157 22.0455 163.354 21.2348 163.748 20.6136C164.142 19.9848 164.669 19.4924 165.328 19.1364C165.987 18.7803 166.714 18.5152 167.509 18.3409C168.313 18.1591 169.119 18.0152 169.93 17.9091C170.991 17.7727 171.85 17.6705 172.509 17.6023C173.176 17.5265 173.661 17.4015 173.964 17.2273C174.275 17.053 174.43 16.75 174.43 16.3182V16.2273C174.43 15.1061 174.123 14.2348 173.509 13.6136C172.903 12.9924 171.983 12.6818 170.748 12.6818C169.468 12.6818 168.464 12.9621 167.737 13.5227C167.009 14.0833 166.498 14.6818 166.203 15.3182L163.657 14.4091C164.112 13.3485 164.718 12.5227 165.475 11.9318C166.241 11.3333 167.074 10.9167 167.975 10.6818C168.884 10.4394 169.778 10.3182 170.657 10.3182C171.218 10.3182 171.862 10.3864 172.589 10.5227C173.324 10.6515 174.032 10.9205 174.714 11.3295C175.403 11.7386 175.975 12.3561 176.43 13.1818C176.884 14.0076 177.112 15.1136 177.112 16.5V28H174.43V25.6364H174.294C174.112 26.0152 173.809 26.4205 173.384 26.8523C172.96 27.2841 172.396 27.6515 171.691 27.9545C170.987 28.2576 170.127 28.4091 169.112 28.4091ZM169.521 26C170.581 26 171.475 25.7917 172.203 25.375C172.938 24.9583 173.491 24.4205 173.862 23.7614C174.241 23.1023 174.43 22.4091 174.43 21.6818V19.2273C174.316 19.3636 174.066 19.4886 173.68 19.6023C173.301 19.7083 172.862 19.803 172.362 19.8864C171.869 19.9621 171.388 20.0303 170.919 20.0909C170.456 20.1439 170.081 20.1894 169.794 20.2273C169.097 20.3182 168.445 20.4659 167.839 20.6705C167.241 20.8674 166.756 21.1667 166.384 21.5682C166.021 21.9621 165.839 22.5 165.839 23.1818C165.839 24.1136 166.184 24.8182 166.873 25.2955C167.57 25.7652 168.453 26 169.521 26ZM184.688 4.72727V28H182.007V4.72727H184.688ZM192.282 4.72727V28H189.6V4.72727H192.282Z" fill="black"/>
</g>
<defs>
<clipPath id="clip0_2006_10">
<rect width="193" height="32" fill="white"/>
</clipPath>
</defs>
</svg>

